# xmcd CD database file
#
# Track frame offsets:
#	150
#	19612
#	35960
#	62257
#	80322
#	96895
#	108007
#	133527
#	147627
#	183767
#	201220
#	219717
#	231367
#
# Disc length: 3309 seconds
#
# Revision: 0
# Processed by: cddbd v1.5.1PL0 Copyright (c) Steve Scherf et al.
# Submitted via: CDex 1.51
#
DISCID=b20ceb0d
DTITLE=Rolling Stones - The Sky Pilots [CD1]
DYEAR=1969
DGENRE=Rock and Roll
TTITLE0=Jumpin' Jack Flash
TTITLE1=Carol
TTITLE2=Sympathy For The Devil
TTITLE3=Stray Cat Blues
TTITLE4=Prodigal Son
TTITLE5=You Gotta Move
TTITLE6=Love In Vain
TTITLE7=Under My Thumb
TTITLE8=Midnight Rambler
TTITLE9=Live With Me
TTITLE10=Gimme Shelter
TTITLE11=Little Queenie
TTITLE12=Brown Sugar
EXTD=YEAR: 1969
EXTT0=
EXTT1=
EXTT2=
EXTT3=
EXTT4=
EXTT5=
EXTT6=
EXTT7=
EXTT8=
EXTT9=
EXTT10=
EXTT11=
EXTT12=
PLAYORDER=
